<?xml version="1.0" standalone="no"?>
<!DOCTYPE svg PUBLIC "-//W3C//DTD SVG 20010904//EN"
 "http://www.w3.org/TR/2001/REC-SVG-20010904/DTD/svg10.dtd">
<svg version="1.0" xmlns="http://www.w3.org/2000/svg"
 width="338.000000pt" height="184.000000pt" viewBox="0 0 338.000000 184.000000"
 preserveAspectRatio="xMidYMid meet">
<metadata>
Created by potrace 1.15, written by Peter Selinger 2001-2017
</metadata>
<g transform="translate(0.000000,184.000000) scale(0.100000,-0.100000)"
fill="#000000" stroke="none">
<path d="M0 920 l0 -920 1690 0 1690 0 0 920 0 920 -1690 0 -1690 0 0 -920z
m2792 -78 c-11 -11 -21 -41 -25 -72 -5 -39 -14 -61 -32 -79 -14 -14 -25 -20
-25 -13 0 8 -11 10 -34 6 -34 -5 -35 -5 -31 29 4 49 40 93 99 122 59 30 73 32
48 7z m368 -61 c14 -10 24 -22 23 -27 -4 -15 -44 -17 -70 -3 -20 11 -30 9 -73
-12 -27 -13 -50 -28 -50 -32 0 -4 -12 -13 -27 -18 -16 -6 -41 -27 -58 -48 -19
-25 -33 -34 -37 -27 -6 8 -10 8 -15 0 -7 -10 -53 -26 -53 -19 0 9 49 86 70
111 28 32 91 77 130 93 35 15 130 4 160 -18z"/>
</g>
</svg>
